<svg xmlns="http://www.w3.org/2000/svg" width="760" height="570" viewBox="0 0 760 570"><title>Test calibration curve</title><rect width="100%" height="100%" fill="white"/><text x="335.0" y="34.0" font-family="Arial,sans-serif" font-size="22" text-anchor="middle" font-weight="bold" fill="#17202a">Test calibration curve (15 bins)</text><rect x="95" y="75" width="480" height="420" fill="#fafafa" stroke="#ccd1d1"/><line x1="95.0" y1="75" x2="95.0" y2="495" stroke="#e5e7e9"/><line x1="95" y1="495.0" x2="575" y2="495.0" stroke="#e5e7e9"/><text x="95.0" y="515.0" font-family="Arial,sans-serif" font-size="11" text-anchor="middle" font-weight="normal" fill="#17202a">0.0</text><text x="87.0" y="499.0" font-family="Arial,sans-serif" font-size="11" text-anchor="end" font-weight="normal" fill="#17202a">0.0</text><line x1="191.0" y1="75" x2="191.0" y2="495" stroke="#e5e7e9"/><line x1="95" y1="411.0" x2="575" y2="411.0" stroke="#e5e7e9"/><text x="191.0" y="515.0" font-family="Arial,sans-serif" font-size="11" text-anchor="middle" font-weight="normal" fill="#17202a">0.2</text><text x="87.0" y="415.0" font-family="Arial,sans-serif" font-size="11" text-anchor="end" font-weight="normal" fill="#17202a">0.2</text><line x1="287.0" y1="75" x2="287.0" y2="495" stroke="#e5e7e9"/><line x1="95" y1="327.0" x2="575" y2="327.0" stroke="#e5e7e9"/><text x="287.0" y="515.0" font-family="Arial,sans-serif" font-size="11" text-anchor="middle" font-weight="normal" fill="#17202a">0.4</text><text x="87.0" y="331.0" font-family="Arial,sans-serif" font-size="11" text-anchor="end" font-weight="normal" fill="#17202a">0.4</text><line x1="383.0" y1="75" x2="383.0" y2="495" stroke="#e5e7e9"/><line x1="95" y1="243.0" x2="575" y2="243.0" stroke="#e5e7e9"/><text x="383.0" y="515.0" font-family="Arial,sans-serif" font-size="11" text-anchor="middle" font-weight="normal" fill="#17202a">0.6</text><text x="87.0" y="247.0" font-family="Arial,sans-serif" font-size="11" text-anchor="end" font-weight="normal" fill="#17202a">0.6</text><line x1="479.0" y1="75" x2="479.0" y2="495" stroke="#e5e7e9"/><line x1="95" y1="159.0" x2="575" y2="159.0" stroke="#e5e7e9"/><text x="479.0" y="515.0" font-family="Arial,sans-serif" font-size="11" text-anchor="middle" font-weight="normal" fill="#17202a">0.8</text><text x="87.0" y="163.0" font-family="Arial,sans-serif" font-size="11" text-anchor="end" font-weight="normal" fill="#17202a">0.8</text><line x1="575.0" y1="75" x2="575.0" y2="495" stroke="#e5e7e9"/><line x1="95" y1="75.0" x2="575" y2="75.0" stroke="#e5e7e9"/><text x="575.0" y="515.0" font-family="Arial,sans-serif" font-size="11" text-anchor="middle" font-weight="normal" fill="#17202a">1.0</text><text x="87.0" y="79.0" font-family="Arial,sans-serif" font-size="11" text-anchor="end" font-weight="normal" fill="#17202a">1.0</text><line x1="95" y1="495" x2="575" y2="75" stroke="#7f8c8d" stroke-width="2" stroke-dasharray="7 5"/><circle cx="307.4" cy="285.0" r="3.2" fill="#1f77b4" opacity="0.8"><title>n=2, confidence=0.443, accuracy=0.500</title></circle><circle cx="336.7" cy="180.0" r="3.3" fill="#1f77b4" opacity="0.8"><title>n=4, confidence=0.504, accuracy=0.750</title></circle><circle cx="366.6" cy="232.5" r="3.4" fill="#1f77b4" opacity="0.8"><title>n=8, confidence=0.566, accuracy=0.625</title></circle><circle cx="401.3" cy="229.7" r="3.5" fill="#1f77b4" opacity="0.8"><title>n=19, confidence=0.638, accuracy=0.632</title></circle><circle cx="431.2" cy="285.0" r="3.5" fill="#1f77b4" opacity="0.8"><title>n=18, confidence=0.700, accuracy=0.500</title></circle><circle cx="459.8" cy="285.0" r="3.5" fill="#1f77b4" opacity="0.8"><title>n=18, confidence=0.760, accuracy=0.500</title></circle><circle cx="499.6" cy="159.0" r="3.7" fill="#1f77b4" opacity="0.8"><title>n=30, confidence=0.843, accuracy=0.800</title></circle><circle cx="527.4" cy="187.0" r="3.8" fill="#1f77b4" opacity="0.8"><title>n=45, confidence=0.901, accuracy=0.733</title></circle><circle cx="574.5" cy="78.8" r="10.9" fill="#1f77b4" opacity="0.8"><title>n=3906, confidence=0.999, accuracy=0.991</title></circle><polyline fill="none" stroke="#1f77b4" stroke-width="2" points="307.4,285.0 336.7,180.0 366.6,232.5 401.3,229.7 431.2,285.0 459.8,285.0 499.6,159.0 527.4,187.0 574.5,78.8"/><text x="335.0" y="545.0" font-family="Arial,sans-serif" font-size="14" text-anchor="middle" font-weight="bold" fill="#17202a">Mean confidence</text><text x="28.0" y="285.0" font-family="Arial,sans-serif" font-size="14" text-anchor="middle" font-weight="bold" fill="#17202a" transform="rotate(-90 28 285.0)">Observed accuracy</text><text x="650.0" y="120.0" font-family="Arial,sans-serif" font-size="16" text-anchor="middle" font-weight="bold" fill="#17202a">ECE = 0.0122</text><text x="650.0" y="150.0" font-family="Arial,sans-serif" font-size="12" text-anchor="middle" font-weight="normal" fill="#17202a">Marker size reflects bin count</text></svg>